<svg id="acae8c8c-6143-431a-b4e2-e0fff168d451" data-name="Layer 1" xmlns="http://www.w3.org/2000/svg" viewBox="0 0 252 252"><defs><style>.e71bb2ba-2dbc-471f-b80c-c5ca698ee6be{fill:#83d4f6;}.e49c8d7f-1887-4a6c-9fb6-7fd2597c1414{fill:#d71921;}.b111b31c-8f84-430e-887f-68390d20b17c{fill:#ec1c24;}.b3fb7ab8-518d-4980-803e-90011c27af43{fill:#fff100;}.aad2e512-c2a7-4018-8758-cb7d0f75dc7e{fill:#3b2314;}</style></defs><path class="e71bb2ba-2dbc-471f-b80c-c5ca698ee6be" d="M246.07,68.16H20.61a4.93,4.93,0,0,0-4.93,4.93v98.27a4.93,4.93,0,0,0,4.93,4.93H246.07a4.93,4.93,0,0,0,4.93-4.93V73.09A4.93,4.93,0,0,0,246.07,68.16Z"/><rect class="e49c8d7f-1887-4a6c-9fb6-7fd2597c1414" x="1" y="84.4" width="235.32" height="99.44" rx="5.87"/><rect class="b111b31c-8f84-430e-887f-68390d20b17c" x="1" y="75.71" width="235.32" height="99.44" rx="5.87"/><rect class="b3fb7ab8-518d-4980-803e-90011c27af43" x="12.6" y="87.98" width="212.11" height="74.91" rx="3.32"/><path class="aad2e512-c2a7-4018-8758-cb7d0f75dc7e" d="M180.92,142.41l-5.84-.61-4.85-9.31a25.88,25.88,0,0,0-3.29-5l.06,0c4.81-2.53,7.35-6.52,7.35-11.53a12.41,12.41,0,0,0-5.48-10.5c-3-2.09-7.45-3.11-13.72-3.11H140.39l-2.91.31v2.61l.3,4.29,5.62.54v31.82l-4.6.48-5.23-.57-14.35-39.1-1-1.45-4.68.19-.77,1.16L97.15,141.81l-5.5.58a13.76,13.76,0,0,0,2.09-7.26,12.77,12.77,0,0,0-3.86-9.25,15.81,15.81,0,0,0-3-2.4,11.15,11.15,0,0,0,4.17-8.94,12,12,0,0,0-1.71-6.37,11,11,0,0,0-4.28-3.81c-2.56-1.38-6.56-2.06-12.2-2.06H58.29l-2.92.31v2.61l.31,4.29,5.62.54v31.82l-5.93.62v2.6l.31,4.54H74.3c7.85,0,13.32-2.08,16.43-6v1.5l.3,4.54h16.14l2.92-.31v-2.61l-.31-4.36-4-.32,3.19-8.05h10.44l3,8-4.56.51v2.6l.3,4.54h18.68l1-.1v.1h20.06l2.94-.31v-2.61l-.34-4.35-6.23-.52V130.16c1.57.43,3.89,1.83,6.1,6.46l5.4,11.32,1.18,1.69h11.42l2.91-.31v-2.61Zm-26.71-20.23V110.39c7.74,0,8.78,3.25,8.78,6.41a5.23,5.23,0,0,1-.73,2.91c-.58.88-1.69,2.09-4.56,2.34C156.93,122.12,155.77,122.16,154.21,122.18Zm-37.6,4h-4.67l2.41-6.13Zm-36.46-10.9A4.46,4.46,0,0,1,78,119.51c-.87.52-2.61,1.14-6,1.19V110.39l2.38.09a7.47,7.47,0,0,1,4.36,1.31A3.88,3.88,0,0,1,80.15,115.24ZM72,128.3h.45c8.67,0,9.83,3.73,9.83,7.38,0,1.9,0,5.86-8.64,5.86H72Z"/><polygon class="aad2e512-c2a7-4018-8758-cb7d0f75dc7e" points="203.34 107.17 208.71 118.04 220.71 119.79 212.02 128.25 214.07 140.2 203.34 134.56 192.6 140.2 194.66 128.25 185.97 119.79 197.97 118.04 203.34 107.17"/><polygon class="aad2e512-c2a7-4018-8758-cb7d0f75dc7e" points="34.38 107.17 39.75 118.04 51.75 119.79 43.06 128.25 45.11 140.2 34.38 134.56 23.65 140.2 25.7 128.25 17.01 119.79 29.01 118.04 34.38 107.17"/></svg>