<svg id="eae4f504-5e57-4cb1-a467-bb8926efea16" data-name="Layer 1" xmlns="http://www.w3.org/2000/svg" viewBox="0 0 252 252"><defs><style>.e915315e-7fec-443e-af7e-bd371db1083a{fill:#83d4f6;}.fdc190ad-f3d6-4926-9bfe-d2a427792b8b{fill:#f2861e;}.e90366eb-7213-458c-ac4a-595bde683a55{fill:#ffd100;}.e5c4e093-feb4-42ce-a4c4-2cbaa41356d3{fill:#ffdd15;}.bf98ee99-7240-4b55-9804-a3f0c7e5f411{fill:#f9a41a;}.a8d422c5-9365-467f-a9c7-b47d6e5ae103{fill:#e5801d;}.be67f174-4188-4b3d-81e4-beed930dbda7{fill:#fff7ab;}</style></defs><path class="e915315e-7fec-443e-af7e-bd371db1083a" d="M79.37,202.14a1.52,1.52,0,0,0-.09.51h0c0,1.9,3.26,3.67,8.85,5.14l.64.17c.62.16,1.28.31,2,.46,9.75,2.16,24.85,3.55,41.81,3.55s32.07-1.39,41.82-3.55c.68-.15,1.34-.3,2-.46l.64-.17c5.59-1.47,8.85-3.24,8.85-5.14h0a1.52,1.52,0,0,0-.09-.51l48-68.4a12.43,12.43,0,1,0-7.54-11.43,12.55,12.55,0,0,0,.83,4.44H195.13l1.13-16.65a13,13,0,0,0,2.36.23,12.45,12.45,0,1,0-8.55-3.43l-17.13,15.86-31.7-56.43a17.76,17.76,0,1,0-17.39,0l-31.7,56.43L75.22,107.07A12.42,12.42,0,0,0,64.89,85.62a12.44,12.44,0,0,0,3.93,24.56h0L70,126.75H38.51a11.56,11.56,0,0,0,.67-2.47,12.43,12.43,0,1,0-10.31,10.31,11.78,11.78,0,0,0,2.63-.73Z"/><polygon class="fdc190ad-f3d6-4926-9bfe-d2a427792b8b" points="181.65 133.68 183.43 107.5 159.46 129.69 119.07 57.78 78.68 129.69 54.71 107.5 56.48 133.68 13.04 133.68 66.25 209.58 119.07 209.58 171.89 209.58 225.09 133.68 181.65 133.68"/><polygon class="e90366eb-7213-458c-ac4a-595bde683a55" points="119.07 209.58 134.99 209.58 119.07 89.74 119.07 89.74 119.07 89.74 119.07 89.74 103.14 209.58 119.07 209.58"/><circle class="e5c4e093-feb4-42ce-a4c4-2cbaa41356d3" cx="119.07" cy="57.78" r="17.75" transform="translate(35.47 160.39) rotate(-76.72)"/><polygon class="bf98ee99-7240-4b55-9804-a3f0c7e5f411" points="111.5 209.58 76.9 133.68 56.48 133.68 13.04 133.68 82.48 209.58 111.5 209.58"/><polygon class="e90366eb-7213-458c-ac4a-595bde683a55" points="97.61 209.58 13.04 133.68 82.48 209.58 97.61 209.58"/><polygon class="bf98ee99-7240-4b55-9804-a3f0c7e5f411" points="126.64 209.58 161.23 133.68 181.65 133.68 225.09 133.68 155.65 209.58 126.64 209.58"/><polygon class="e90366eb-7213-458c-ac4a-595bde683a55" points="140.53 209.58 225.09 133.68 155.65 209.58 140.53 209.58"/><circle class="e5c4e093-feb4-42ce-a4c4-2cbaa41356d3" cx="225.09" cy="129.24" r="12.43"/><circle class="e5c4e093-feb4-42ce-a4c4-2cbaa41356d3" cx="185.15" cy="104.83" r="12.43"/><ellipse class="e5c4e093-feb4-42ce-a4c4-2cbaa41356d3" cx="13.43" cy="129.24" rx="12.38" ry="12.46" transform="translate(-87.46 47.35) rotate(-45)"/><path class="e5c4e093-feb4-42ce-a4c4-2cbaa41356d3" d="M65.65,106.8a12.43,12.43,0,1,0-10.31,10.31A12.44,12.44,0,0,0,65.65,106.8Z"/><ellipse class="e90366eb-7213-458c-ac4a-595bde683a55" cx="119.07" cy="209.58" rx="53.26" ry="9.32"/><path class="a8d422c5-9365-467f-a9c7-b47d6e5ae103" d="M66,208.87a1.92,1.92,0,0,0-.21.71c0,5.15,23.85,9.32,53.27,9.32s53.26-4.17,53.26-9.32a1.9,1.9,0,0,0-.2-.71c-8.14-3.11-28.79-5.33-53.06-5.33S74.14,205.76,66,208.87Z"/><path class="be67f174-4188-4b3d-81e4-beed930dbda7" d="M106.84,55.85a4.66,4.66,0,1,1,4.66,4.66A4.66,4.66,0,0,1,106.84,55.85Z"/><path class="be67f174-4188-4b3d-81e4-beed930dbda7" d="M42.64,104.83a4.66,4.66,0,1,1,4.66,4.66A4.66,4.66,0,0,1,42.64,104.83Z"/><circle class="be67f174-4188-4b3d-81e4-beed930dbda7" cx="180.53" cy="103.13" r="4.66"/><path class="be67f174-4188-4b3d-81e4-beed930dbda7" d="M4.11,129.24a4.66,4.66,0,1,1,4.66,4.66A4.66,4.66,0,0,1,4.11,129.24Z"/><circle class="be67f174-4188-4b3d-81e4-beed930dbda7" cx="220.43" cy="129.24" r="4.66"/></svg>