<svg id="f07871e8-9cad-4104-aa41-c7af05cc538c" data-name="Layer 1" xmlns="http://www.w3.org/2000/svg" viewBox="0 0 252 252"><defs><style>.b24318db-c811-47bb-b721-5038e28de169{fill:#83d4f6;}.f6b44df2-6892-443e-bd9d-d81e3d13b9e9{fill:#63ccf5;}.a070de9a-cea7-4395-a199-8f142bdc66c8{fill:#8dd7f7;}.a4e95a41-961a-4408-9ffa-58e169c48b81{fill:#cbebfb;}</style></defs><g id="f501524c-bb4c-454c-8abf-a5f6da21f400" data-name="5"><polygon class="b24318db-c811-47bb-b721-5038e28de169" points="136.58 31.55 76.32 31.55 16.44 71.22 31.15 75.49 27.5 74.81 16.44 71.22 133.53 212.5 251 79.61 240.8 80.11 238.63 80.44 239.56 80.17 189.98 82.59 251 79.61 196.84 31.55 136.58 31.55"/><polygon class="f6b44df2-6892-443e-bd9d-d81e3d13b9e9" points="1 79.16 60.88 39.5 82.24 66.96 62.79 97.09 1 79.16"/><polygon class="f6b44df2-6892-443e-bd9d-d81e3d13b9e9" points="62.79 97.09 12.06 82.76 1 79.16 118.09 220.45 111.22 168.03 62.79 97.09"/><polygon class="f6b44df2-6892-443e-bd9d-d81e3d13b9e9" points="235.56 87.55 118.09 220.45 126.22 165.1 169.2 101.75 183.43 94.38 225.36 88.05 235.56 87.55"/><polygon class="a070de9a-cea7-4395-a199-8f142bdc66c8" points="62.79 97.09 118.09 220.45 137.74 183.19 181.4 100.4 174.53 97.09 62.79 97.09"/><polygon class="a4e95a41-961a-4408-9ffa-58e169c48b81" points="60.88 39.5 76.14 63.91 60.88 91.75 12.06 82.76 57.83 98.3 90.44 158.77 69.27 101.75 169.2 101.75 137.74 183.19 181.4 100.4 224.12 88.11 174.53 90.53 156.99 63.91 147.84 63.91 85.29 63.91 60.88 39.5"/><polygon class="a070de9a-cea7-4395-a199-8f142bdc66c8" points="121.14 39.5 60.88 39.5 85.29 63.91 121.14 63.91 156.99 63.91 181.4 39.5 121.14 39.5"/><polygon class="a070de9a-cea7-4395-a199-8f142bdc66c8" points="86.05 69.16 150.89 69.16 166.15 94.38 69.27 94.38 86.05 69.16"/><polygon class="f6b44df2-6892-443e-bd9d-d81e3d13b9e9" points="181.4 39.5 235.56 87.55 174.53 90.53 156.99 63.91 181.4 39.5"/></g></svg>