<svg id="a8f0b8f5-674c-4c5b-82ff-73e434cf7d6d" data-name="Layer 1" xmlns="http://www.w3.org/2000/svg" viewBox="0 0 252 252"><defs><style>.b7722ede-9cc0-4324-aa2d-1bdfddaa5836{fill:#83d4f6;}.ee327ecd-a0b0-4dfb-862a-d821f4927e07{fill:#fcb415;}.b0281257-1af8-4eab-b804-463d4f42468d{fill:#ffca05;}.f1c9115e-c247-4736-ad24-6d368e5eee21{fill:#fff100;}.a007402a-56d3-4a51-b57e-f6544c6b5d14{fill:#00adee;}.fe8944e7-ec59-4ff1-81d0-5959cdf07a47{fill:none;}</style></defs><path class="b7722ede-9cc0-4324-aa2d-1bdfddaa5836" d="M77.27,181.89s-3,32.86,0,59.69h82.3s7.24-84.11,68.74-141.09V1H42V128.23H91.67C83.93,145.12,78.25,163.44,77.27,181.89Z"/><polygon class="ee327ecd-a0b0-4dfb-862a-d821f4927e07" points="79.31 50.21 79.31 126.19 116.84 120.89 155.74 47.5 79.31 50.21"/><rect class="b0281257-1af8-4eab-b804-463d4f42468d" x="23.69" y="76.36" width="61.5" height="61.28"/><path class="b0281257-1af8-4eab-b804-463d4f42468d" d="M191.45,70.11c-44.43,54.78-50.18,121.2-50.18,121.2H119.86l1.51,15.37L141.27,251S148.5,166.89,210,109.91V50.21A193.43,193.43,0,0,0,191.45,70.11Z"/><path class="f1c9115e-c247-4736-ad24-6d368e5eee21" d="M23.69,10.42V76.36h61.5V57.45h44.32s-4.69,4.64-11.63,12.66c-12,13.84-30.64,37.82-43.8,66C66,153.38,60,172.27,59,191.31h82.31s5.75-66.42,50.18-121.2A193.43,193.43,0,0,1,210,50.21V10.42Z"/><path class="ee327ecd-a0b0-4dfb-862a-d821f4927e07" d="M59,191.31S56,224.17,59,251h82.31s-1.51-39.8,0-59.69Z"/><circle class="a007402a-56d3-4a51-b57e-f6544c6b5d14" cx="58.06" cy="35.74" r="9.04" transform="translate(-8.27 51.52) rotate(-45)"/><circle class="a007402a-56d3-4a51-b57e-f6544c6b5d14" cx="96.34" cy="35.74" r="9.04" transform="matrix(0.16, -0.99, 0.99, 0.16, 45.63, 125.12)"/><circle class="a007402a-56d3-4a51-b57e-f6544c6b5d14" cx="134.63" cy="35.74" r="9.04" transform="translate(77.79 162.91) rotate(-80.78)"/><circle class="a007402a-56d3-4a51-b57e-f6544c6b5d14" cx="172.92" cy="35.74" r="9.04" transform="translate(109.94 200.7) rotate(-80.78)"/><circle class="a007402a-56d3-4a51-b57e-f6544c6b5d14" cx="152.72" cy="70.11" r="9.04" transform="translate(49.4 202.64) rotate(-76.72)"/><circle class="a007402a-56d3-4a51-b57e-f6544c6b5d14" cx="128.3" cy="106.29" r="9.04"/><circle class="a007402a-56d3-4a51-b57e-f6544c6b5d14" cx="107.8" cy="137.64" r="9.04"/><circle class="a007402a-56d3-4a51-b57e-f6544c6b5d14" cx="98.76" cy="176.03" r="9.04"/><path class="fe8944e7-ec59-4ff1-81d0-5959cdf07a47" d="M129.51,57.45H85.19V70.11h32.69C124.82,62.09,129.51,57.45,129.51,57.45Z"/></svg>