<svg id="be21c7c8-7d51-407b-9fc4-45d325891751" data-name="Layer 1" xmlns="http://www.w3.org/2000/svg" viewBox="0 0 252 252"><defs><style>.bd4f8ea8-370e-4122-9c7f-32a447cc20e6{fill:#83d4f6;}.ad60ff26-8451-4d67-afd4-881f7de6a0b1{fill:#fcb415;}.b20da34a-b2e8-47ed-b5bc-d9b1c2cf184e{fill:#a5c74a;}.b71f2581-034e-4f3d-bb89-2962aedefdcc{fill:#ec1c24;}.a25e9145-47b4-495a-a33a-93d9ade2e824{fill:#1b6935;}.b303700a-aab4-4d2c-9069-d8e74b7dd685{fill:#90b040;}.f7e95a14-bb2a-4b1e-b8e8-fd75ce354d7b{fill:#231f20;}</style></defs><path class="bd4f8ea8-370e-4122-9c7f-32a447cc20e6" d="M100.94,198.64c1.51.47,3,.9,4.59,1.3s3.11.76,4.66,1.08a119,119,0,0,0,139.54-84.19c-.13.23-.27.46-.43.69.16-.23.3-.46.43-.69a10.07,10.07,0,0,0,1-2.38,10,10,0,0,0,.28-2.56C250.91,93.8,204.51,67.62,143.63,52S29.48,36.8,20.67,52.6c-.23.82-.49,1.62-.7,2.45s-.38,1.66-.57,2.48c0,.27,0,.55,0,.82,0-.27,0-.55,0-.82A119,119,0,0,0,100.94,198.64Zm29.56-80.22.67.17ZM245,121.68l.16-.1Zm.71-.49.26-.18Zm.71-.54.3-.24Zm.68-.57.31-.29Zm.64-.6.31-.33Zm1.13-1.28c.11-.15.22-.29.32-.44C249,117.91,248.93,118.05,248.82,118.2Zm-.54.65c.11-.12.21-.25.31-.37C248.49,118.6,248.39,118.73,248.28,118.85Zm-227-54.76-.09-.17Zm-.39-.77c0-.09-.09-.19-.13-.29C20.76,63.13,20.81,63.23,20.85,63.32Zm-.36-.81c0-.12-.1-.24-.14-.36C20.39,62.27,20.44,62.39,20.49,62.51Zm-.32-.84c-.05-.13-.09-.26-.13-.39C20.08,61.41,20.12,61.54,20.17,61.67Zm-.64-2.5c0-.18-.05-.36-.07-.53C19.48,58.81,19.5,59,19.53,59.17Zm.37,1.67-.12-.44ZM19.69,60c0-.16-.07-.31-.1-.47C19.62,59.69,19.65,59.84,19.69,60Z"/><path class="ad60ff26-8451-4d67-afd4-881f7de6a0b1" d="M234.51,124.65a9,9,0,0,0,1.27-4.93c-.19.83-.36,1.66-.57,2.48S234.74,123.84,234.51,124.65Z"/><path class="b20da34a-b2e8-47ed-b5bc-d9b1c2cf184e" d="M111.54,125.31c60.88,15.67,114.16,15.14,123-.66.23-.81.48-1.62.7-2.45s.38-1.65.57-2.48c-.09-18.09-46.49-44.27-107.37-59.94s-114.15-15.15-123,.65c-.23.82-.49,1.62-.7,2.45s-.38,1.65-.57,2.48C4.27,83.45,50.67,109.64,111.54,125.31Z"/><path class="b71f2581-034e-4f3d-bb89-2962aedefdcc" d="M112.82,120.36c53.69,13.82,100.57,13.8,108.2.43.2-.7.41-1.38.6-2.09s.32-1.4.48-2.1c-.22-15.4-41.27-38.06-95-51.88S26.56,50.92,18.93,64.3c-.19.69-.41,1.37-.59,2.08s-.32,1.4-.48,2.11C18.08,83.88,59.12,106.54,112.82,120.36Z"/><path class="a25e9145-47b4-495a-a33a-93d9ade2e824" d="M24.47,107.68A74.26,74.26,0,0,1,29.88,93.2C13.79,83.41,4.22,73.56,4.18,65.36a118.94,118.94,0,0,0,81.54,141.1C41,192.62,13.75,149.33,24.47,107.68Z"/><path class="a25e9145-47b4-495a-a33a-93d9ade2e824" d="M234.51,124.65c-4,7.16-17.14,11.17-36,12a72.7,72.7,0,0,1-2.25,15.29C185.58,193.57,140.83,218.33,95,208.84A118.94,118.94,0,0,0,234.51,124.65Z"/><path class="b303700a-aab4-4d2c-9069-d8e74b7dd685" d="M90.32,207.77c-1.55-.4-3.08-.85-4.6-1.31C87.23,206.93,88.76,207.37,90.32,207.77Z"/><path class="b303700a-aab4-4d2c-9069-d8e74b7dd685" d="M95,208.84c-1.55-.33-3.1-.67-4.65-1.07C91.87,208.17,93.42,208.52,95,208.84Z"/><path class="b303700a-aab4-4d2c-9069-d8e74b7dd685" d="M196.3,151.91a72.7,72.7,0,0,0,2.25-15.29,210.35,210.35,0,0,1-25-.58c-.5,3.15-1.14,6.32-2,9.5-11.09,43.06-47.46,70.93-81.23,62.23,1.55.4,3.1.74,4.65,1.07C140.83,218.33,185.58,193.57,196.3,151.91Z"/><path class="b303700a-aab4-4d2c-9069-d8e74b7dd685" d="M49.23,114.05c.81-3.18,1.79-6.26,2.87-9.26A210.31,210.31,0,0,1,29.88,93.2a74.26,74.26,0,0,0-5.41,14.48C13.75,149.33,41,192.62,85.72,206.46c1.52.46,3,.91,4.6,1.31C56.54,199.07,38.14,157.12,49.23,114.05Z"/><path class="a25e9145-47b4-495a-a33a-93d9ade2e824" d="M171.55,145.54c.82-3.18,1.46-6.35,2-9.5-7.5-.59-15.46-1.52-23.78-2.81-.45,2.09-.94,4.2-1.48,6.31-11.09,43.07-37,73.61-57.93,68.23C124.09,216.47,160.46,188.6,171.55,145.54Z"/><path class="a25e9145-47b4-495a-a33a-93d9ade2e824" d="M72.53,120.05c.54-2.12,1.13-4.19,1.75-6.25-7.91-2.88-15.33-5.91-22.18-9-1.08,3-2.06,6.08-2.87,9.26-11.09,43.07,7.31,85,41.09,93.72C69.4,202.39,61.44,163.11,72.53,120.05Z"/><path class="b303700a-aab4-4d2c-9069-d8e74b7dd685" d="M148.25,139.54c.54-2.11,1-4.22,1.48-6.31-7.14-1.11-14.54-2.49-22.12-4.13-.39,1.6-.79,3.2-1.2,4.82C115.32,177,99.16,210.05,90.32,207.77,111.23,213.15,137.16,182.61,148.25,139.54Z"/><path class="b303700a-aab4-4d2c-9069-d8e74b7dd685" d="M94.37,125.67q.63-2.42,1.27-4.8c-7.43-2.22-14.57-4.59-21.36-7.07-.62,2.06-1.21,4.13-1.75,6.25-11.09,43.06-3.13,82.34,17.79,87.72C81.47,205.49,83.28,168.74,94.37,125.67Z"/><path class="a25e9145-47b4-495a-a33a-93d9ade2e824" d="M126.41,133.92c.41-1.62.81-3.22,1.2-4.82q-7.92-1.71-16.07-3.79t-15.9-4.44q-.65,2.38-1.27,4.8c-11.09,43.07-12.9,79.82-4.05,82.1S115.32,177,126.41,133.92Z"/><path class="f7e95a14-bb2a-4b1e-b8e8-fd75ce354d7b" d="M124.83,96s-17.2,10-.4,17.08S134.84,101.58,124.83,96Z"/><path class="f7e95a14-bb2a-4b1e-b8e8-fd75ce354d7b" d="M155.17,106.08s1.34,15.17,14.65,13.32S155.17,106.08,155.17,106.08Z"/><path class="f7e95a14-bb2a-4b1e-b8e8-fd75ce354d7b" d="M178.85,104.34s26.3-6.34,28.65,8.58S178.85,104.34,178.85,104.34Z"/><path class="f7e95a14-bb2a-4b1e-b8e8-fd75ce354d7b" d="M149,96.87s.86-13.08,12.68-8.16S149,96.87,149,96.87Z"/><path class="f7e95a14-bb2a-4b1e-b8e8-fd75ce354d7b" d="M127.83,91.14s-14-17.6,1.12-15.08S127.83,91.14,127.83,91.14Z"/><path class="f7e95a14-bb2a-4b1e-b8e8-fd75ce354d7b" d="M106,84.68S79.54,79.25,89,73.92,105,75.59,106,84.68Z"/><path class="f7e95a14-bb2a-4b1e-b8e8-fd75ce354d7b" d="M94.32,87.3s-25-1.1-14.29,11S94.32,87.3,94.32,87.3Z"/><path class="f7e95a14-bb2a-4b1e-b8e8-fd75ce354d7b" d="M70.48,77.7S44.26,84.8,43.25,68,70.48,77.7,70.48,77.7Z"/></svg>