<svg id="eae89c3b-eb2f-4324-8db0-1da7a50085de" data-name="Layer 1" xmlns="http://www.w3.org/2000/svg" viewBox="0 0 252 252"><defs><style>.b29545c9-a062-43de-8d2d-ff9d8e8507b8{fill:#83d4f6;}.ae395b9b-c21f-408d-a2e5-67aea14f99ff{fill:#d32229;}.b4f95a84-210c-4518-a838-1091cca611a9{fill:#ed3424;}.b41f7ef1-e310-462f-8c09-df1ae3c1aa3c{fill:#d82128;}.a3e379f7-fb35-4bb3-b7ac-0011c8ebd6da{fill:#32a745;}.bec6f62e-b049-4896-8668-c12c4d609099{fill:#37b34a;}.a14f6c32-4735-46e8-8da0-4f0608cc6dc2{fill:#f59693;}.f3ac7dca-6138-42ed-8dc4-0cff3d7d7b3a{fill:#e53322;}.b683f098-a840-4e93-ade6-1a960cfd92ec{fill:#754c28;}</style></defs><g id="ac4a339f-cd57-437b-82ad-2a3e5f73ebbf" data-name="4"><path class="b29545c9-a062-43de-8d2d-ff9d8e8507b8" d="M250.77,143.29c0-.46-.1-.92-.16-1.39-.12-1-.28-2-.46-3-.1-.5-.19-1-.3-1.5-.23-1-.5-2.05-.79-3.06-.11-.39-.21-.79-.33-1.18-.41-1.3-.88-2.57-1.4-3.82-.22-.53-.47-1-.7-1.56-.34-.74-.69-1.48-1.06-2.2s-.65-1.21-1-1.81-.68-1.15-1-1.71-.81-1.28-1.24-1.9c-.25-.35-.52-.69-.78-1a48.22,48.22,0,0,0-3.41-4.13c-.18-.2-.36-.41-.55-.61-.69-.72-1.41-1.42-2.15-2.1l-.62-.56a48.65,48.65,0,0,0-11.61-7.7l-.08,0c-.44-.21-.87-.44-1.32-.64h0c-.66-.28-1.33-.52-2-.78h0a47.94,47.94,0,0,0-7.06-2.12l-.21,0c-1.41-.3-2.85-.51-4.31-.68-.21,0-.4-.07-.61-.09a49.08,49.08,0,0,0-5-.27h0a48.36,48.36,0,0,0-19.09,3.91c-.51-7-6.59-57.35-77.14-91.14l-9.86,8.22a64.82,64.82,0,0,1,5.05,6C90.56,27,73,29.21,62.79,36.73,47.19,48.23,43.9,67.94,42.26,87.64s-12.32,41.89-24.64,42.71c0,0,27,3.23,52.11-4.09h0l1.82-.55.19-.07,1.65-.53.31-.11q.76-.26,1.53-.54l.37-.13,1.46-.56.41-.16,1.44-.58.39-.17,1.47-.64.34-.15,1.63-.77.14-.07c1.18-.58,2.35-1.19,3.49-1.84l.41-.24c.42-.24.84-.48,1.25-.73l.59-.37,1-.66.64-.43,1-.65.66-.48.89-.66.67-.51.86-.68.65-.54.83-.71.64-.57.8-.75.61-.58.79-.8.57-.59.79-.87.52-.59c.29-.33.56-.66.84-1,.14-.17.28-.33.41-.51.41-.51.81-1,1.2-1.57s1-1.38,1.44-2.08l.34-.52c.46-.7.9-1.4,1.32-2.11v0c.42-.71.82-1.41,1.21-2.12.09-.18.19-.36.29-.54.38-.72.75-1.44,1.1-2.16l0-.06c.34-.71.67-1.42,1-2.14l.25-.55q.47-1.09.9-2.19s0-.07,0-.11c.27-.7.53-1.41.78-2.12l.2-.57c.25-.74.49-1.47.72-2.21,0,0,0-.1,0-.15.22-.7.41-1.39.61-2.09l.15-.59c.2-.73.38-1.47.55-2.2,0-.06,0-.13.05-.19.16-.69.3-1.37.44-2.06l.12-.59c.14-.73.28-1.46.4-2.18l0-.22c.12-.67.22-1.35.31-2,0-.19.06-.39.08-.58.1-.72.19-1.45.27-2.16,0-.08,0-.15,0-.22.07-.67.14-1.33.19-2,0-.19,0-.38,0-.57.06-.71.11-1.42.15-2.12a1.77,1.77,0,0,1,0-.23c0-.65.06-1.29.08-1.93,0-.18,0-.37,0-.55,0-.69,0-1.39.05-2.07v-.21c0-.64,0-1.27,0-1.9v-.5c0-.68,0-1.35,0-2a1.09,1.09,0,0,0,0-.18c0-.62,0-1.24-.08-1.85,0-.15,0-.3,0-.45,0-.61-.07-1.21-.11-1.8,8.09,19.45,13.94,47.46,5.94,82.68,0,0-10,3.08-11.07,9.75a48.4,48.4,0,0,0-19.3,38.71v.15c0,.83,0,1.66.07,2.48,0,.3,0,.6.07.89,0,.58.09,1.16.15,1.73,0,.33.08.66.12,1,.07.53.14,1.07.23,1.6l.18,1c.09.53.2,1.06.31,1.58.07.31.14.62.22.93q.19.82.42,1.62c.07.28.15.55.23.83.17.58.36,1.16.55,1.73l.23.66c.23.67.49,1.33.75,2,0,.12.09.24.14.35a48.45,48.45,0,0,0,91.87-7.11.94.94,0,0,0,0-.16l.09-.4A48.33,48.33,0,0,0,241.16,177l.07-.09c.84-1.11,1.63-2.25,2.37-3.43.06-.1.12-.21.19-.31.68-1.12,1.33-2.26,1.93-3.43L246,169c.53-1.08,1-2.17,1.48-3.3.15-.37.28-.75.42-1.13.37-1,.74-2,1-3,.17-.57.3-1.15.45-1.72.22-.89.47-1.77.64-2.68,0-.12.05-.23.08-.34s0-.44.09-.65c.09-.5.15-1,.22-1.52.1-.7.23-1.38.3-2.09a1.37,1.37,0,0,1,0-.19c.14-1.46.21-3,.21-4.46,0,0,0-.08,0-.12v0C251,146.24,250.91,144.76,250.77,143.29ZM123.56,40.84s37,16.42,50.09,64.87a7.74,7.74,0,0,0-4.64,7.11,48.61,48.61,0,0,0-10.59,15,.54.54,0,0,0,0,.11c-.61,1.35-1.16,2.73-1.65,4.15-.08.24-.17.49-.25.74s-.23.72-.34,1.09-.21.73-.31,1.09-.21.77-.3,1.16-.13.55-.2.82a48.46,48.46,0,0,0-12.53-2.4l-.25,0c-.84,0-1.69-.07-2.54-.07h0a49.15,49.15,0,0,0-6.34.43C137.93,120,143.8,85,123.56,40.84Z"/><circle class="ae395b9b-c21f-408d-a2e5-67aea14f99ff" cx="123.38" cy="191.46" r="48.45"/><path class="b4f95a84-210c-4518-a838-1091cca611a9" d="M74.93,191.46a48.32,48.32,0,0,0,17.35,37.13,52.25,52.25,0,0,0,59.4-52.09A52.33,52.33,0,0,0,142.61,147a48.43,48.43,0,0,0-67.68,44.47Z"/><path class="b41f7ef1-e310-462f-8c09-df1ae3c1aa3c" d="M140.6,146.21a48.33,48.33,0,0,0,18.65,77.73,48.33,48.33,0,0,0-18.65-77.73Z"/><path class="b4f95a84-210c-4518-a838-1091cca611a9" d="M168.54,208.93a47.81,47.81,0,0,0,3.29-17.47,48.42,48.42,0,0,0-31.23-45.25c-.8.89-1.54,1.82-2.28,2.76a56.13,56.13,0,0,0,30.22,60Z"/><path class="a3e379f7-fb35-4bb3-b7ac-0011c8ebd6da" d="M94.62,34.6s-32.85-.82-48.45,10.68S27.28,76.49,25.64,96.19,13.32,138.08,1,138.9c0,0,61.59,7.39,85.41-25.46S94.62,34.6,94.62,34.6Z"/><path class="bec6f62e-b049-4896-8668-c12c4d609099" d="M43.7,103c-1.11,13.31-6.34,27.71-13.41,35.94,19.27-1.76,43.22-7.74,56.12-25.52,17.9-24.7,13.52-56.83,10.25-71.25-10.59,1.1-24,3.72-32.43,9.92C48.63,63.6,45.35,83.31,43.7,103Z"/><circle class="a14f6c32-4735-46e8-8da0-4f0608cc6dc2" cx="113.3" cy="177.57" r="12.4" transform="translate(-92.38 132.13) rotate(-45)"/><path class="b41f7ef1-e310-462f-8c09-df1ae3c1aa3c" d="M224.61,185.41c.83-1.11,1.62-2.25,2.36-3.43.07-.1.13-.21.19-.31.69-1.12,1.34-2.26,1.94-3.43.11-.22.21-.44.31-.66.53-1.08,1-2.17,1.49-3.3.15-.37.27-.75.41-1.13.38-1,.74-2,1.05-3.05.17-.57.29-1.15.44-1.72.23-.89.47-1.77.65-2.68,0-.12.05-.23.07-.34s.06-.44.1-.65c.08-.5.14-1,.21-1.52.1-.7.24-1.38.3-2.09l0-.19c.14-1.46.21-2.95.21-4.46,0,0,0-.08,0-.12s0,0,0,0c0-1.5-.09-3-.22-4.45,0-.46-.11-.92-.16-1.39-.13-1-.28-2-.47-3q-.14-.75-.3-1.5c-.22-1-.49-2-.78-3.06-.12-.39-.21-.79-.33-1.18-.42-1.3-.88-2.57-1.4-3.82-.22-.53-.47-1-.71-1.56-.34-.74-.68-1.48-1.06-2.2s-.65-1.21-1-1.81-.68-1.15-1-1.71-.8-1.28-1.23-1.9c-.25-.35-.52-.69-.78-1a50.17,50.17,0,0,0-3.41-4.13c-.19-.2-.36-.41-.55-.61q-1-1.08-2.16-2.1l-.61-.56a48.71,48.71,0,0,0-11.62-7.7l-.07,0c-.45-.21-.87-.44-1.33-.64h0c-.65-.28-1.33-.52-2-.78h0a47.94,47.94,0,0,0-7.06-2.12l-.21,0c-1.42-.3-2.86-.51-4.31-.68l-.61-.09a49.43,49.43,0,0,0-5-.27h0a48.46,48.46,0,0,0-48.45,48.46s0,0,0,.06a46.82,46.82,0,0,0,.29,5.19c.06.56.17,1.1.25,1.66.17,1.16.34,2.31.59,3.45.14.62.31,1.22.47,1.83.27,1,.56,2.08.89,3.1.21.61.44,1.2.66,1.79.38,1,.78,2,1.22,3,.25.56.52,1.11.79,1.65.49,1,1,1.94,1.57,2.88.29.49.58,1,.88,1.45.63,1,1.3,1.93,2,2.86.29.39.57.79.88,1.17.8,1,1.66,2,2.54,2.94.24.26.47.53.71.78,1.15,1.18,2.35,2.31,3.61,3.37h0a48.33,48.33,0,0,0,69.71-8Z"/><path class="f3ac7dca-6138-42ed-8dc4-0cff3d7d7b3a" d="M193.27,189.66l.07-.09c.83-1.11,1.62-2.25,2.36-3.43l.19-.32c.69-1.11,1.34-2.25,1.93-3.42l.32-.66c.53-1.08,1-2.18,1.49-3.3.14-.37.27-.76.41-1.13.37-1,.74-2,1.05-3.06.17-.56.29-1.14.44-1.71.23-.89.47-1.78.65-2.68,0-.12,0-.23.07-.35s.05-.43.09-.64c.09-.51.15-1,.22-1.53.1-.69.23-1.38.3-2.08a1.23,1.23,0,0,0,0-.19c.14-1.47.21-3,.22-4.46v-.16c0-1.5-.09-3-.22-4.45,0-.47-.11-.93-.17-1.39-.12-1-.28-2-.46-3-.1-.51-.19-1-.3-1.5-.23-1-.49-2-.79-3.06-.11-.39-.2-.79-.33-1.18-.41-1.3-.88-2.58-1.4-3.82-.21-.53-.47-1-.7-1.56-.34-.74-.69-1.48-1.06-2.2s-.65-1.21-1-1.81-.69-1.15-1-1.71-.8-1.28-1.23-1.9c-.25-.36-.53-.7-.79-1.05a46.29,46.29,0,0,0-3.41-4.12c-.18-.2-.36-.41-.55-.61-.69-.73-1.41-1.42-2.15-2.1l-.61-.56a48.61,48.61,0,0,0-11.62-7.7l-.08,0c-.44-.2-.87-.44-1.32-.63h0c-.66-.29-1.33-.52-2-.78h0a48.44,48.44,0,0,0-7.07-2.12l-.21-.06-.3,0a48.4,48.4,0,0,0-26.83,43.31s0,0,0,.06a46.82,46.82,0,0,0,.29,5.19c.06.56.17,1.1.25,1.66.17,1.16.34,2.31.59,3.45.14.62.31,1.22.47,1.83.27,1,.56,2.08.89,3.1.21.61.44,1.2.66,1.79.38,1,.78,2,1.22,3,.25.56.52,1.11.79,1.65.49,1,1,1.94,1.57,2.88.29.49.58,1,.88,1.45.63,1,1.3,1.93,2,2.86.29.39.57.79.88,1.17.8,1,1.66,2,2.54,2.94.24.26.47.53.71.78,1.15,1.18,2.35,2.31,3.61,3.37h0a48.19,48.19,0,0,0,21.49,10.33A48.93,48.93,0,0,0,193.27,189.66Z"/><path class="b4f95a84-210c-4518-a838-1091cca611a9" d="M177.36,177.68c.23-.89.47-1.77.65-2.68,0-.11.05-.23.07-.34s0-.44.09-.65c.09-.5.15-1,.22-1.52.1-.7.23-1.38.3-2.09a1.1,1.1,0,0,0,0-.18q.21-2.21.21-4.47s0-.08,0-.12v0c0-1.5-.09-3-.23-4.44,0-.47-.1-.93-.16-1.39-.12-1-.28-2-.46-3-.1-.5-.19-1-.3-1.5-.23-1-.49-2.05-.79-3.05-.11-.4-.2-.8-.33-1.19-.41-1.3-.88-2.57-1.4-3.82-.22-.53-.47-1-.7-1.56-.34-.74-.69-1.47-1.06-2.19s-.65-1.22-1-1.82-.69-1.14-1-1.71-.8-1.27-1.23-1.89c-.25-.36-.53-.7-.79-1A48.22,48.22,0,0,0,166,132.8c-.18-.2-.36-.41-.55-.6-.69-.73-1.41-1.42-2.15-2.11l-.62-.55a48.19,48.19,0,0,0-11-7.41,48.19,48.19,0,0,0-14.21,34.2s0,0,0,.06a46.82,46.82,0,0,0,.29,5.19c.06.56.17,1.1.25,1.66.17,1.16.34,2.31.59,3.45.14.62.31,1.22.47,1.83.27,1,.56,2.08.89,3.1.21.61.44,1.2.66,1.79.38,1,.78,2,1.22,3,.25.56.52,1.11.79,1.65.49,1,1,1.94,1.57,2.88.29.49.58,1,.88,1.45.63,1,1.3,1.93,2,2.86.29.39.57.79.88,1.17.8,1,1.66,2,2.54,2.94.24.26.47.53.71.78,1.15,1.18,2.35,2.31,3.61,3.37h0a48.34,48.34,0,0,0,9.82,6.37,50.63,50.63,0,0,0,4.45-5l.06-.09c.84-1.11,1.63-2.25,2.37-3.43.06-.1.12-.21.19-.31.69-1.12,1.33-2.25,1.93-3.43.11-.21.21-.44.32-.66.53-1.08,1-2.17,1.48-3.3.15-.37.28-.75.42-1.13.37-1,.74-2,1-3C177.08,178.84,177.21,178.26,177.36,177.68Z"/><circle class="a14f6c32-4735-46e8-8da0-4f0608cc6dc2" cx="170.71" cy="146.44" r="12.4" transform="matrix(0.16, -0.99, 0.99, 0.16, -1.18, 291.49)"/><path class="b683f098-a840-4e93-ade6-1a960cfd92ec" d="M89.69,20.64l-9.85,8.21S121.72,70.74,105.29,143c0,0-13.42,4.11-10.82,13.14,0,0,14.93,1.65,19.86-4.92,0,0,19.71-42.71-7.39-101.83,0,0,36.95,16.42,50.09,64.87,0,0-6.57,2.46-4.11,10.68,0,0,14.79-4.11,14-12.32C166.89,112.62,165.69,57,89.69,20.64Z"/></g></svg>