<svg id="b15bae93-0f22-4fa9-8188-7584b50fcb84" data-name="Layer 1" xmlns="http://www.w3.org/2000/svg" viewBox="0 0 252 252"><defs><style>.ffb36d62-cf3d-4b5c-ad07-0d36b06d480b{fill:#83d4f6;}.b51ee2b1-9ed0-4e33-b6b8-7d0e91edfcc2{fill:#32a745;}.b3db9601-6d9f-4959-9a71-7f31c3a96f4c{fill:#37b34a;}.eb792adb-beb4-4c38-a43c-f25150c8dcc2{fill:#fff581;}.e0d7815b-b233-4ace-82bd-62b974988c2b{fill:#fff100;}.b4b7218b-5d62-4184-a884-17ff32efb0a5{fill:#ffe400;}.b9ab033c-f56d-48e4-9112-d75ee8a44ffa{fill:#fffbd4;}</style></defs><g id="b72e643a-0c48-4e0d-ab30-8faa8e33e9c9" data-name="6"><path class="ffb36d62-cf3d-4b5c-ad07-0d36b06d480b" d="M250.8,151.67c0-.25,0-.5,0-.75,0-.42.06-.83.08-1.25l0-.76,0-1.26c0-.23,0-.47,0-.7,0-.46,0-.92,0-1.38,0-.19,0-.38,0-.56,0-1.3-.11-2.58-.22-3.85,0-.18,0-.35,0-.53,0-.45-.09-.91-.14-1.36,0-.21,0-.42-.08-.63-.05-.43-.11-.85-.17-1.27,0-.21-.06-.42-.1-.63-.06-.43-.13-.85-.21-1.27,0-.2-.07-.39-.1-.58-.09-.48-.19-.95-.29-1.42,0-.14-.05-.27-.08-.4-.26-1.23-.56-2.44-.89-3.63l-.12-.42-.39-1.35c-.06-.18-.12-.35-.17-.53-.13-.41-.26-.82-.4-1.22l-.18-.55c-.14-.41-.29-.81-.44-1.22l-.18-.5c-.17-.45-.34-.9-.52-1.35a3.42,3.42,0,0,1-.13-.34c-.46-1.12-.94-2.23-1.44-3.32l-.21-.45c-.19-.38-.37-.77-.56-1.15-.09-.19-.18-.37-.28-.56-.17-.34-.34-.68-.52-1l-.31-.59-.53-1c-.11-.19-.22-.38-.32-.57l-.58-1-.3-.52c-.29-.48-.58-1-.88-1.44l-.3-.47c-.2-.33-.41-.65-.62-1l-.45-.68-.49-.72-.51-.74-.44-.64-.56-.77-.41-.55c-.2-.27-.4-.55-.61-.82l-.31-.4q-1.74-2.26-3.58-4.35l-.09-.1c-.31-.36-.62-.7-.94-1.05l-.07-.08C218.4,84.41,203.34,76.57,195.09,77.1a12.68,12.68,0,0,0-1.7.25,60.49,60.49,0,0,0-18.73-33.57C155.71,26.68,109,38.05,99.05,6.11A104.6,104.6,0,0,0,96.93,40.4a1.64,1.64,0,0,0,0,.22c0,.5.11,1,.17,1.51,0,.1,0,.21,0,.31.06.52.13,1.05.2,1.57a1.11,1.11,0,0,1,0,.19c.17,1.17.36,2.36.57,3.56,0,.15.06.29.08.44.09.44.17.88.26,1.33,0,.18.07.36.11.54.09.43.18.87.28,1.31,0,.16.07.32.1.49.14.58.27,1.16.42,1.75v0c.14.59.3,1.19.46,1.79l.15.53c.11.42.23.84.36,1.27.06.21.12.42.19.63.12.41.25.81.37,1.22.07.2.14.41.2.61.16.47.31.94.48,1.41l.13.4q.32.9.66,1.8l.19.48c.17.44.34.88.52,1.32.09.22.18.43.26.65l.51,1.19.29.65c.19.43.39.86.59,1.28l.24.53c.28.59.58,1.19.88,1.78,0,.11.11.23.17.34l.77,1.45.33.61c.22.4.45.8.68,1.19.12.22.24.43.37.64.24.41.49.82.74,1.23l.34.56c.37.58.75,1.17,1.14,1.75.53.8,1.08,1.58,1.64,2.33l.28.38c.54.71,1.1,1.41,1.67,2.09l.33.4a1.14,1.14,0,0,0,.11.11c-16.67,4.44-34.6,12.43-52.54,24.49-49.58,33.33-43.08,78-42.27,89.41s-4.87,16.26,0,22.76c4,5.28,10.07,3.6,16.14,5.39h0c.31.09.63.2.95.31l.2.07a15,15,0,0,1,1.88.86l.23.12c.31.18.62.36.92.57,7.32,4.88,59.34,22.76,110.55-10.57,1.36-.88,2.68-1.8,4-2.73l.43-.3c1.23-.9,2.42-1.81,3.59-2.75l.57-.45q1.71-1.4,3.34-2.83l.56-.51q1.64-1.45,3.18-3l.46-.45q1.59-1.57,3.1-3.19l.22-.24c1-1.1,2-2.21,2.94-3.33l.19-.23c.95-1.12,1.86-2.26,2.75-3.41l.38-.48c.85-1.12,1.68-2.26,2.48-3.4l.4-.57c.8-1.14,1.57-2.3,2.31-3.46.11-.18.23-.36.34-.55.75-1.19,1.48-2.39,2.18-3.6l.21-.37c1.42-2.48,2.73-5,3.94-7.54,12.67,16.55,24.53,33.79,15.36,54a123.23,123.23,0,0,0,28.66-28.41l.15-.21c.34-.48.69-1,1-1.45l.21-.31q.53-.75,1-1.53l.12-.18c.78-1.17,1.54-2.36,2.29-3.58l.27-.44c.28-.45.55-.91.82-1.37.11-.18.22-.36.32-.55.27-.45.52-.91.78-1.37.1-.17.2-.34.29-.52.34-.61.68-1.23,1-1.85l0,0c.34-.64.67-1.29,1-1.94l.29-.57c.22-.47.45-.93.67-1.4.11-.23.23-.47.34-.71l.61-1.35c.1-.23.21-.46.31-.7.23-.53.46-1.06.68-1.6.07-.15.13-.31.2-.46.28-.69.56-1.38.83-2.08l.21-.58c.2-.52.39-1,.58-1.56l.27-.78c.16-.48.32-.95.48-1.44.09-.26.18-.53.26-.79.17-.53.33-1.06.49-1.59.06-.21.13-.43.2-.65.21-.74.42-1.49.62-2.25,0-.14.07-.29.11-.44.16-.61.32-1.24.46-1.86.07-.26.12-.53.18-.79.12-.53.24-1,.35-1.58.06-.29.12-.57.17-.85.11-.55.21-1.1.31-1.65.05-.26.09-.51.14-.76.13-.81.26-1.61.38-2.43s.17-1.34.25-2l.06-.64C250.72,152.57,250.77,152.12,250.8,151.67Z"/><path class="b51ee2b1-9ed0-4e33-b6b8-7d0e91edfcc2" d="M173.42,106.06c8.72-8.85,3.74-36.72-15.21-53.82S92.52,46.52,82.59,14.57c0,0-10.78,39.91,11.18,72.87S163.36,116.26,173.42,106.06Z"/><path class="b3db9601-6d9f-4959-9a71-7f31c3a96f4c" d="M166.92,110c-2.72-12.13-11.87-27.86-25.39-40.39-17.12-15.87-45.77-18-61.24-40-1.15,14.63-.06,37.56,13.48,57.88C112.58,115.66,150.18,116.68,166.92,110Z"/><path class="eb792adb-beb4-4c38-a43c-f25150c8dcc2" d="M167.2,100.16c26.2,21.53,17.88,92.67-33.33,126S30.64,241.6,23.32,236.72,7.88,235.91,3,229.41,3.81,218,3,206.65s-7.32-56.09,42.27-89.42S144.44,81.47,167.2,100.16Z"/><path class="e0d7815b-b233-4ace-82bd-62b974988c2b" d="M173.45,107.17c-19.57-7.65-47-11.65-77.79,3.56-12.19,9.75,17.89,36.58-11.38,66.65s-53.64,5.69-61,5.69-18.7,16.26-10.57,24.39,6.1,12.26-2.81,13.82c-3.42.6-6.19,3.34-7.76,6.88A11.59,11.59,0,0,0,3,229.41c4.88,6.5,13,2.43,20.32,7.31s59.34,22.76,110.55-10.57C180.44,195.84,191.54,134.27,173.45,107.17Z"/><path class="b4b7218b-5d62-4184-a884-17ff32efb0a5" d="M173.45,107.17c-.67-.26-1.37-.5-2.06-.76-9.95,27.25-27.2,64.33-52.15,83.09C88.83,212.36,58,226.32,19.13,234.79a15,15,0,0,1,4.19,1.93c7.32,4.88,59.34,22.76,110.55-10.57C180.44,195.84,191.54,134.27,173.45,107.17Z"/><path class="b9ab033c-f56d-48e4-9112-d75ee8a44ffa" d="M87.54,105V114S47.71,143.24,42,176.57l-23.58-9.38S34.7,126.17,87.54,105Z"/><path class="b51ee2b1-9ed0-4e33-b6b8-7d0e91edfcc2" d="M178.64,85.57c-14.56.94-32,29.26-28.72,59.07S203,201,186.77,236.76c0,0,40.64-26.55,47.14-72.62S195.44,84.48,178.64,85.57Z"/><path class="b3db9601-6d9f-4959-9a71-7f31c3a96f4c" d="M187.4,87.21c-7.09,12.76-11.36,33.7-9.31,55.26,2.61,27.29,26.06,51.55,22.41,82.95,12.44-11.92,29.4-32.89,33.41-61.28C239.48,124.7,207.31,94.42,187.4,87.21Z"/></g></svg>