<svg id="e77c5f58-1e84-4d9d-b5b4-780c52ecbaf5" data-name="Layer 1" xmlns="http://www.w3.org/2000/svg" viewBox="0 0 252 252"><defs><style>.be446c61-1c65-413d-9dad-f288d6a238e0{fill:#83d4f6;}.a30e52ea-5849-4604-b6eb-88fcca04999a{fill:#db5c1e;}.fb8a86d1-ada0-4e5f-805a-5500d1ef4f23{fill:#f16522;}.ad3b05ab-9459-453d-9252-ef5403de38b1{fill:#ffdd15;}</style></defs><g id="f3be89b1-06cd-4a1e-a672-b223c30ef088" data-name="7"><path class="be446c61-1c65-413d-9dad-f288d6a238e0" d="M231.79,52.14q-16.12-16.5-44.73-16.49t-44.6,16.27q-19.35,19.74-19.34,64.65c0,1.9,0,3.77.07,5.61s-.07,3.42-.07,5.18q0,45.78,17.59,63.62t46.35,17.84q28.6,0,44.6-16.27Q251,172.81,251,127.69c0-1.84,0-3.65-.07-5.42s.07-3.55.07-5.38Q251,71.66,231.79,52.14ZM207.61,156.59q-3,9.12-8.33,12.64a23,23,0,0,1-24.38.05q-5.31-3.47-8.8-13.94Q163,146,162.65,122.45q.34-23.88,3.85-34.57,3-9.12,8.33-12.64a21.79,21.79,0,0,1,12.23-3.52,21.44,21.44,0,0,1,12.15,3.52q5.31,3.53,8.8,14,3.13,9.39,3.45,32.9Q211.13,146,207.61,156.59Z"/><polygon class="be446c61-1c65-413d-9dad-f288d6a238e0" points="99.36 46.28 99.36 35.49 55.66 35.49 15.64 45.49 15.64 56.29 15.64 77.08 15.64 87.88 43.55 87.88 43.55 158.17 24.07 158.17 24.07 168.96 24.07 198.19 24.07 208.98 116.74 208.98 116.74 198.19 116.74 168.96 116.74 158.17 99.36 158.17 99.36 46.28"/><path class="a30e52ea-5849-4604-b6eb-88fcca04999a" d="M172.41,54Q201,54,217.15,70.46q19.2,19.53,19.21,64.76T217,200.08q-16,16.28-44.6,16.27t-46.34-17.84q-17.59-17.85-17.6-63.62,0-44.91,19.35-64.65Q143.81,54,172.41,54Zm0,25.28a21.78,21.78,0,0,0-12.22,3.52q-5.37,3.53-8.33,12.64Q148,107.23,148,135.22t3.49,38.45q3.49,10.47,8.8,13.94a23,23,0,0,0,24.38-.06Q190,184,193,174.92q3.9-11.71,3.9-39.7t-3.49-38.46q-3.5-10.45-8.8-14A21.47,21.47,0,0,0,172.41,79.25Z"/><polygon class="a30e52ea-5849-4604-b6eb-88fcca04999a" points="84.72 176.5 84.72 53.81 41.02 53.81 1 63.82 1 95.41 28.91 95.41 28.91 176.5 9.42 176.5 9.42 216.51 102.09 216.51 102.09 176.5 84.72 176.5"/><path class="fb8a86d1-ada0-4e5f-805a-5500d1ef4f23" d="M172.41,43.18q28.62,0,44.74,16.49,19.2,19.52,19.21,64.75T217,189.29q-16,16.26-44.6,16.27t-46.34-17.85q-17.59-17.84-17.6-63.61,0-44.91,19.35-64.65Q143.81,43.18,172.41,43.18Zm0,25.27A21.79,21.79,0,0,0,160.19,72q-5.37,3.52-8.33,12.64Q148,96.44,148,124.42t3.49,38.45q3.49,10.47,8.8,13.94a23,23,0,0,0,24.38-.05q5.37-3.52,8.32-12.64,3.9-11.72,3.9-39.7T193.37,86q-3.5-10.47-8.8-14A21.48,21.48,0,0,0,172.41,68.45Z"/><polygon class="fb8a86d1-ada0-4e5f-805a-5500d1ef4f23" points="84.72 165.7 84.72 43.02 41.02 43.02 1 53.02 1 84.62 28.91 84.62 28.91 165.7 9.42 165.7 9.42 205.72 102.09 205.72 102.09 165.7 84.72 165.7"/><circle class="ad3b05ab-9459-453d-9252-ef5403de38b1" cx="25.22" cy="63.56" r="7.37"/><circle class="ad3b05ab-9459-453d-9252-ef5403de38b1" cx="55.76" cy="87.85" r="7.37"/><circle class="ad3b05ab-9459-453d-9252-ef5403de38b1" cx="55.76" cy="149.38" r="7.37" transform="translate(-52.92 32.71) rotate(-22.5)"/><circle class="ad3b05ab-9459-453d-9252-ef5403de38b1" cx="29.02" cy="180.35" r="7.37"/><circle class="ad3b05ab-9459-453d-9252-ef5403de38b1" cx="83.3" cy="180.35" r="7.37"/><circle class="ad3b05ab-9459-453d-9252-ef5403de38b1" cx="55.76" cy="58.82" r="8.95"/><circle class="ad3b05ab-9459-453d-9252-ef5403de38b1" cx="55.76" cy="119.37" r="8.95"/><circle class="ad3b05ab-9459-453d-9252-ef5403de38b1" cx="172.42" cy="56.18" r="8.95" transform="translate(10.77 138.37) rotate(-45)"/><circle class="ad3b05ab-9459-453d-9252-ef5403de38b1" cx="210.89" cy="76.72" r="8.95"/><circle class="ad3b05ab-9459-453d-9252-ef5403de38b1" cx="137.5" cy="76.72" r="8.95"/><circle class="ad3b05ab-9459-453d-9252-ef5403de38b1" cx="217.21" cy="115.42" r="8.95" transform="translate(-17.99 187.39) rotate(-45)"/><circle class="ad3b05ab-9459-453d-9252-ef5403de38b1" cx="131.18" cy="115.42" r="8.95" transform="translate(-34.18 58.99) rotate(-22.5)"/><circle class="ad3b05ab-9459-453d-9252-ef5403de38b1" cx="210.89" cy="158.33" r="8.95"/><circle class="ad3b05ab-9459-453d-9252-ef5403de38b1" cx="131.18" cy="158.33" r="8.95"/><circle class="ad3b05ab-9459-453d-9252-ef5403de38b1" cx="172.42" cy="193.15" r="8.95" transform="translate(-55.18 316.58) rotate(-76.72)"/><circle class="ad3b05ab-9459-453d-9252-ef5403de38b1" cx="55.76" cy="180.35" r="8.95"/></g></svg>